<?xml version="1.0" encoding="UTF-8"?><svg id="Layer_2" xmlns="http://www.w3.org/2000/svg" viewBox="0 0 153.42 41.4"><defs><style>.cls-1{fill:#fff;}</style></defs><g id="Layer_1-2"><g><g><path class="cls-1" d="M8.02,34.8c-5.21,0-8.02-3.52-8.02-8,0-.93,.11-1.89,.32-2.98L3.83,5.6h1.37c2.78,0,3.83,.7,3.83,2.67,0,.5-.07,1.12-.21,1.82l-1.13,5.76c.95-1.7,2.78-3.4,5.24-3.4,4.15,0,7.25,3.13,7.25,8.04,0,7.77-4.75,14.31-12.17,14.31Zm3.1-16.98c-4.33,0-5.14,5.76-5.14,7.73,0,3.63,1.65,4.02,3.1,4.02,3.59,0,4.93-4.64,4.93-7.89,0-2.44-1.06-3.87-2.89-3.87Z"/><g><path class="cls-1" d="M36.88,19.6c-.82-.33-1.47-.41-2.39-.41-1.7,0-3.21,.85-3.74,3.33l-2.58,12.16h-1.92c-3.03,0-4.58-1.4-3.86-4.8l1.88-8.83c.87-4.1,4.33-7.35,8.95-7.35,3.51,0,4.83,1.44,4.43,3.33l-.55,2.59h-.22Z"/><path class="cls-1" d="M43.96,34.97c-3.73,0-6.26-1.85-5.24-6.65l2.84-13.34h1.74c3.99,0,5.04,1.15,4.26,4.84l-1.59,7.46c-.38,1.81,.35,2.36,2.31,2.36h.85l-.44,2.07c-.52,2.44-2.54,3.25-4.72,3.25Z"/><path class="cls-1" d="M71.24,30.42c-.1,.63-.25,1.33-.4,2.07-1.05,4.95-6.11,8.91-12.53,8.91-5.8,0-7.51-2.59-6.96-5.17l.46-2.18h.22c1.01,1.15,3.24,1.81,6.53,1.81,2.96,0,4.89-1.63,5.35-3.81,.07-.33,.1-.81,.18-1.18l.15-.7c-.72,1.29-2.61,2.55-4.64,2.55-5.14,0-8.73-2.59-7.38-8.91,1.19-5.58,6.53-10.05,13.44-10.05,6.17,0,8.29,3.58,7.11,9.13l-1.14,5.36c-.1,.48-.22,1.22-.39,2.18Zm-11.9-7.28c-.64,3.03,.52,4.14,2.63,4.14,1.96,0,3.35-1.51,3.84-3.81,.64-2.99-.24-4.06-2.35-4.06s-3.62,1.37-4.12,3.73Z"/><path class="cls-1" d="M92.29,34.67c-3.7,0-3.95-1.74-3.42-4.25l1.45-6.8c.61-2.88-.15-4.18-2.14-4.18-2.73,0-3.71,1.44-4.32,4.32l-2.32,10.9h-2.36c-3.36,0-4.36-1.4-3.75-4.25l4.91-23.1h2.25c2.92,0,4.28,1.4,3.73,4.03l-1.12,5.25c1.38-1.63,3.34-2.85,6.55-2.85,4.1,0,7.01,3.18,5.84,8.68l-2.6,12.23h-2.7Z"/><path class="cls-1" d="M106.53,10.77c1.07-.7,2.47-1.37,3.95-1.37h.74l-1.05,4.95h5.95l-.53,2.48c-.37,1.74-2.5,3.07-4.09,3.07h-2.51l-1.56,7.35c-.29,1.37,.39,2.18,1.75,2.18,1.66,0,2.47-.15,3.27-.44h.18l-.58,2.73c-.36,1.7-2.24,3.25-5.9,3.25s-6.85-1.66-5.67-7.24l2.68-12.6c.39-1.85,1.78-3.33,3.37-4.36Z"/><path class="cls-1" d="M125.32,27.02h-3.03c-.03,2.03,1.43,2.99,4.35,2.99,3.25,0,5.39-.52,6.7-1.29h.26l-.35,1.63c-.55,2.59-3.15,4.91-8.95,4.91-7.02,0-9.71-4.73-8.52-10.35,1.31-6.17,6.56-11.2,12.84-11.2,5.32,0,8.82,2.99,7.72,8.17-.86,4.06-4.16,5.14-11.03,5.14Zm2.19-8.06c-2.48,0-3.85,1.59-4.45,3.55h2.73c3.33,0,4.03-.52,4.22-1.4,.22-1.03-.47-2.14-2.5-2.14Z"/><path class="cls-1" d="M152.58,19.6c-.82-.33-1.47-.41-2.39-.41-1.7,0-3.21,.85-3.74,3.33l-2.58,12.16h-1.92c-3.03,0-4.58-1.4-3.86-4.8l1.88-8.83c.87-4.1,4.33-7.35,8.95-7.35,3.51,0,4.83,1.44,4.43,3.33l-.55,2.59h-.22Z"/></g></g><path class="cls-1" d="M39.65,11.09c2.13-.95,3.77-2.43,4.81-4.53,1.03-2.09,1.24-4.29,.7-6.56,.93,2.14,2.42,3.77,4.5,4.81,2.1,1.05,4.29,1.25,6.57,.71-2.14,.94-3.77,2.42-4.81,4.51-1.04,2.1-1.25,4.29-.69,6.57-.94-2.15-2.43-3.77-4.53-4.82-2.09-1.04-4.28-1.25-6.55-.7Z"/></g></g></svg>